<svg width="630" height="630" xmlns="http://www.w3.org/2000/svg">

 <g>
  <title>background</title>
  <rect fill="none" id="canvas_background" height="632" width="632" y="-1" x="-1"/>
 </g>
 <g>
  <title>Layer 1</title>
  <path id="svg_1" fill="#fff" d="m165.03,244.65c-34.039,0 -61.724,27.688 -61.724,61.728l0,473.22c0,34.034 27.684,61.722 61.724,61.722l473.28,0c34.039,0 61.724,-27.688 61.724,-61.722l0,-473.22c0,-34.041 -27.684,-61.728 -61.724,-61.728l-473.28,0z"/>
  <path id="svg_2" fill="#231f20" d="m551.607997,625.917519c41.024,0 74.371,-33.22 74.371,-74.304l0,-473.22c0,-41.022 -33.347,-74.311 -74.371,-74.311l-473.28,0c-41.023,0 -74.307,33.288 -74.307,74.311l0,473.22c0,41.084 33.284,74.304 74.307,74.304l473.28,0z"/>
  <g id="svg_3" fill="#fff">
   <path id="svg_4" d="m558.630366,544.266882c-119.86,1.819 -245.07,-21.082 -340.9,-98.094c-0.62979,-0.62915 -0.88144,-1.3198 -0.88144,-2.2019c0,-1.7643 1.4477,-3.2072 3.2092,-3.2072l94.505,0.1231c4.5303,0 8.3686,-3.7747 8.3686,-8.37c0,-3.4601 -1.6357,-5.8466 -5.2852,-7.6725l-85.445,-40.776c-1.5728,-1.0052 -2.7052,-2.7626 -2.7052,-4.7799c0,-1.5728 0.62912,-2.9541 1.6357,-3.9662c0,0 104.07,-91.988 327.5,-89.97l0,258.92l-0.00166,-0.0054zm-200.34,-145.72c11.2,0 20.134,-9.0606 20.134,-20.2c0,-11.201 -8.9348,-20.262 -20.134,-20.262c-11.2,0 -20.26,9.0607 -20.26,20.262c0,11.14 9.06,20.2 20.26,20.2"/>
   <path id="svg_5" d="m513.010366,85.646882c-74.056,0.82059 -146.48,32.406 -227.71,99.038c-3.0204,-0.82059 -9.6897,-2.6464 -9.6897,-2.6464c-12.898,0 -23.406,10.449 -23.406,23.346c0,0 0.88074,4.3423 1.447,7.0502c-2.5165,2.325 -65.625,61.599 -65.625,61.599l-55.872,52.6c-5.2223,4.7799 -12.018,7.2348 -19.065,6.8587c-7.1097,-0.31451 -13.59,-3.3986 -18.246,-8.623c-4.5932,-5.0329 -6.858,-11.386 -6.858,-17.745c0,-7.1733 2.8939,-14.34 8.5567,-19.564c0,0 4.2158,-2.3318 7.4249,-4.1508c0.69203,4.7799 2.6423,19.38 2.6423,19.38l45.554,-57.954l-50.273,17.116c-13.213,4.5269 -18.687,11.201 -18.876,11.454c-18.373,16.672 -19.82,45.864 -2.8317,64.676c17.114,18.88 46.309,20.2 65.185,3.1456l0.5033,-0.6291l52.915,-50.398s65.31,-61.783 67.449,-63.8c3.1463,0.82059 9.3752,2.3934 9.3752,2.3934c12.836,0 23.28,-10.51 23.28,-23.407c0,0 -0.62912,-3.3986 -1.0695,-5.8535c78.524,-64.676 147.29,-95.318 216.07,-96.138c14.156,-0.12308 25.483,1.7642 44.044,5.7236l3.7754,0.8206l0,-18.436l-2.4542,-0.506c-19.19,-4.0892 -31.712,-5.5321 -46.245,-5.3475"/>
  </g>
 </g>
</svg>
